 <svg version="1.0" xmlns="http://www.w3.org/2000/svg" width="700.000000pt" height="700.000000pt" viewBox="0 0 700.000000 700.000000" preserveAspectRatio="xMidYMid meet">
<metadata>
Created by potrace 1.12, written by Peter Selinger 2001-2015
</metadata>
<g transform="translate(0.000000,700.000000) scale(0.100000,-0.100000)" fill="#000000" stroke="none">
<path d="M3850 6985 c-7 -8 -18 -15 -24 -15 -11 0 -56 -44 -56 -54 0 -6 -86
-191 -126 -269 -19 -38 -34 -74 -34 -82 0 -7 -7 -18 -15 -25 -8 -7 -15 -20
-15 -30 0 -34 -27 -42 -147 -46 -65 -2 -129 -6 -143 -10 -14 -3 -79 -10 -145
-14 -66 -5 -144 -14 -172 -20 -29 -5 -74 -14 -100 -19 -27 -5 -77 -16 -113
-25 -36 -9 -86 -21 -112 -27 -26 -5 -60 -16 -75 -24 -15 -8 -34 -15 -41 -15
-14 0 -95 -27 -182 -60 -30 -12 -67 -25 -81 -30 -14 -4 -34 -12 -45 -18 -10
-6 -71 -36 -134 -67 -118 -57 -205 -103 -252 -133 -14 -9 -48 -30 -75 -46 -48
-29 -295 -210 -323 -237 -8 -8 -40 -35 -70 -60 -83 -70 -198 -184 -281 -279
-41 -47 -77 -87 -80 -90 -3 -3 -35 -43 -70 -90 -102 -134 -162 -225 -256 -385
-25 -43 -151 -302 -167 -345 -10 -25 -24 -58 -32 -73 -8 -16 -14 -36 -14 -46
0 -9 -7 -26 -15 -37 -8 -10 -15 -27 -15 -37 0 -11 -6 -33 -14 -50 -17 -41 -49
-158 -77 -282 -6 -27 -17 -75 -25 -106 -8 -30 -14 -73 -14 -95 0 -21 -7 -64
-15 -94 -23 -80 -22 -700 0 -795 8 -37 15 -85 15 -107 0 -23 6 -67 14 -97 8
-31 19 -78 24 -106 10 -49 29 -128 52 -215 7 -25 18 -59 26 -77 8 -17 14 -40
14 -51 0 -12 4 -23 9 -27 5 -3 13 -20 17 -38 3 -17 13 -48 21 -67 9 -19 21
-48 27 -65 38 -92 146 -312 176 -360 11 -16 23 -37 27 -45 3 -8 18 -33 32 -55
14 -22 30 -48 36 -57 11 -19 89 -133 132 -193 15 -22 45 -58 66 -80 42 -45 55
-81 38 -104 -6 -9 -14 -23 -17 -31 -3 -8 -18 -42 -34 -75 -16 -33 -50 -105
-75 -160 -26 -55 -62 -132 -81 -171 -19 -38 -34 -75 -34 -81 0 -6 -7 -16 -15
-23 -8 -7 -15 -21 -15 -31 0 -9 -7 -24 -15 -33 -8 -8 -15 -20 -15 -26 0 -7 -6
-24 -14 -38 -8 -15 -37 -75 -65 -135 -42 -88 -51 -117 -51 -161 0 -44 5 -60
26 -85 14 -17 32 -31 40 -31 8 0 17 -7 20 -15 5 -13 73 -15 525 -15 l518 0 36
25 c44 29 63 54 94 120 68 147 116 235 128 235 8 0 62 -23 121 -51 59 -29 123
-58 142 -67 19 -8 48 -21 63 -28 16 -8 36 -14 46 -14 9 0 26 -7 37 -15 10 -8
27 -15 36 -15 9 0 29 -5 45 -12 73 -30 308 -93 408 -109 33 -5 80 -14 105 -20
25 -6 100 -14 166 -19 67 -4 131 -13 142 -19 26 -14 424 -15 438 -1 5 5 63 13
129 19 66 5 140 14 165 20 25 6 70 15 100 20 68 12 167 35 240 55 123 34 146
42 159 50 7 5 27 12 45 16 99 25 366 146 521 235 33 19 67 38 75 42 8 4 48 30
88 57 41 28 81 56 90 61 96 58 361 282 473 400 94 99 224 248 246 282 9 15 20
30 24 33 10 9 169 239 169 245 0 3 22 42 48 87 27 46 66 117 86 158 21 41 41
82 45 90 12 23 37 80 56 130 9 25 23 58 31 73 8 16 14 35 14 43 0 9 6 25 12
37 12 21 22 51 52 162 49 175 59 215 67 260 5 28 13 79 19 115 6 36 17 101 25
145 21 114 21 667 0 745 -8 30 -15 78 -15 106 0 28 -6 73 -14 100 -8 27 -17
75 -21 106 -3 32 -10 60 -15 63 -4 2 -11 29 -15 60 -3 30 -11 57 -16 60 -5 4
-9 15 -9 25 0 11 -14 59 -31 107 -17 48 -33 99 -36 113 -3 14 -12 34 -19 45
-8 11 -14 28 -14 38 0 10 -6 31 -14 45 -8 15 -27 54 -41 87 -49 113 -154 314
-180 345 -6 8 -15 22 -19 30 -3 8 -15 29 -26 45 -11 17 -23 37 -27 45 -11 24
-207 280 -259 340 -189 212 -429 426 -627 558 -26 18 -50 32 -52 32 -2 0 -32
19 -67 43 -35 24 -81 52 -103 64 -160 83 -165 87 -165 113 -1 14 -1 169 -2
345 -1 388 -1 394 -39 431 -69 70 -20 64 -543 64 -409 0 -475 -2 -486 -15z
m768 -298 c7 -8 12 -133 14 -364 3 -329 4 -352 22 -372 11 -12 71 -47 135 -80
64 -32 132 -68 151 -79 19 -12 49 -29 65 -38 62 -35 228 -147 263 -178 21 -18
64 -53 97 -78 57 -43 253 -232 341 -328 136 -150 328 -438 420 -630 72 -150
94 -200 94 -213 0 -7 6 -21 13 -32 7 -11 23 -54 36 -95 13 -41 28 -83 33 -93
5 -10 13 -37 18 -60 13 -62 30 -126 46 -177 8 -25 14 -64 14 -88 0 -24 5 -53
11 -64 6 -12 15 -69 20 -127 5 -58 13 -146 19 -196 12 -113 12 -279 0 -370 -6
-38 -14 -115 -19 -171 -5 -56 -14 -110 -20 -122 -6 -11 -11 -37 -11 -58 0 -20
-7 -62 -16 -93 -8 -31 -21 -78 -29 -106 -28 -104 -58 -200 -66 -210 -5 -5 -9
-16 -9 -25 -1 -8 -9 -33 -20 -55 -11 -22 -19 -45 -20 -52 0 -6 -7 -24 -15 -40
-8 -15 -39 -80 -70 -143 -30 -63 -68 -137 -85 -165 -16 -27 -33 -57 -37 -65
-14 -30 -137 -207 -201 -290 -115 -149 -378 -416 -472 -480 -19 -13 -51 -38
-70 -55 -37 -32 -227 -161 -270 -182 -14 -7 -41 -23 -60 -34 -38 -24 -214
-112 -270 -136 -19 -8 -48 -21 -63 -29 -16 -8 -33 -14 -39 -14 -5 0 -24 -6
-41 -14 -58 -27 -246 -86 -271 -86 -14 0 -27 -4 -31 -9 -3 -6 -27 -13 -53 -16
-26 -4 -60 -11 -77 -17 -16 -5 -61 -14 -100 -19 -38 -4 -92 -13 -120 -20 -32
-7 -167 -12 -375 -12 -274 0 -335 2 -388 16 -35 9 -81 17 -101 17 -21 0 -60 7
-87 15 -27 8 -62 15 -79 15 -16 1 -41 7 -55 15 -14 8 -34 14 -46 15 -21 0
-144 35 -179 50 -11 5 -49 19 -85 31 -36 12 -74 28 -85 35 -11 8 -26 14 -33
14 -18 0 -330 154 -342 169 -3 3 -20 14 -38 24 -62 32 -148 18 -189 -33 -17
-20 -113 -213 -113 -227 0 -6 -7 -16 -15 -23 -8 -7 -15 -20 -15 -30 0 -10 -7
-23 -15 -30 -8 -7 -15 -21 -15 -31 0 -9 -7 -25 -16 -33 -13 -14 -56 -16 -319
-16 -195 0 -306 4 -310 10 -4 6 14 52 38 103 25 50 64 133 87 182 23 50 70
149 105 220 162 336 163 340 145 396 -8 23 -19 47 -25 53 -40 41 -145 167
-145 174 0 4 -12 21 -28 38 -25 28 -83 112 -156 229 -45 71 -53 84 -81 140
-14 28 -30 57 -35 65 -5 8 -11 22 -14 30 -3 8 -10 22 -14 30 -9 15 -24 47 -56
120 -25 58 -81 211 -100 275 -10 33 -22 74 -28 90 -5 17 -14 51 -18 77 -5 27
-12 53 -16 59 -4 7 -11 39 -15 73 -5 33 -13 88 -18 121 -41 247 -53 582 -27
733 9 50 16 113 16 140 1 26 7 65 15 87 8 22 15 54 15 71 0 30 12 79 45 185 8
26 15 55 15 65 0 11 6 31 14 46 8 15 17 41 21 58 4 17 13 43 21 58 8 15 14 35
14 44 0 9 4 19 9 22 5 3 12 18 15 33 4 16 20 55 36 88 16 33 31 67 34 75 3 8
10 22 15 30 5 8 12 22 15 30 3 8 10 23 16 32 11 20 16 29 56 103 15 28 39 68
54 90 15 22 46 69 70 104 171 259 484 576 745 758 60 42 227 144 255 157 8 3
31 16 50 27 97 58 395 189 429 189 5 0 22 7 37 15 16 8 40 15 54 15 14 1 36 7
50 15 14 8 38 14 53 15 16 0 38 5 50 12 12 7 45 15 72 19 28 5 73 12 100 18
143 29 222 36 455 41 189 4 262 9 280 19 32 17 90 72 90 85 0 5 13 37 29 70
99 208 131 276 131 281 0 3 11 23 25 45 l25 40 304 0 c236 0 306 -3 314 -13z"></path>
<path d="M3245 5889 c-22 -4 -65 -8 -96 -8 -31 -1 -76 -8 -99 -16 -23 -8 -58
-15 -77 -15 -18 0 -50 -7 -70 -15 -19 -8 -44 -15 -54 -15 -10 0 -38 -6 -61
-14 -24 -7 -74 -23 -113 -35 -38 -13 -84 -29 -102 -37 -17 -8 -34 -14 -37 -14
-3 0 -36 -14 -73 -31 -205 -94 -239 -114 -443 -248 -30 -20 -60 -40 -67 -46
-6 -5 -42 -34 -80 -63 -62 -48 -311 -292 -373 -367 -148 -178 -249 -336 -355
-555 -31 -63 -63 -128 -71 -143 -7 -16 -14 -36 -14 -46 0 -9 -7 -26 -15 -37
-8 -10 -15 -27 -15 -36 0 -9 -5 -29 -12 -45 -24 -57 -60 -192 -82 -304 -7 -36
-16 -71 -20 -77 -3 -5 -10 -54 -16 -109 -6 -54 -14 -129 -19 -168 -13 -93 -13
-321 0 -415 6 -41 14 -113 18 -160 9 -91 32 -214 56 -294 8 -26 15 -58 15 -70
0 -12 4 -26 9 -31 6 -6 14 -28 20 -50 12 -51 30 -103 47 -137 8 -14 14 -34 14
-43 0 -9 6 -29 14 -43 8 -15 45 -89 83 -166 70 -142 91 -181 121 -227 104
-160 128 -186 177 -189 67 -5 95 1 124 25 29 26 41 47 161 300 34 72 81 171
105 220 23 50 59 124 78 165 104 222 195 413 272 575 24 50 64 135 90 190 26
55 66 141 90 190 24 50 64 135 90 190 93 197 147 311 190 400 24 50 67 140 95
200 70 149 98 208 168 355 33 69 77 161 97 205 45 96 105 223 174 366 28 59
51 112 51 118 0 6 5 11 10 11 6 0 10 5 10 11 0 6 16 45 36 87 103 218 130 275
172 362 38 77 47 107 50 160 3 55 1 69 -18 93 -12 15 -38 34 -57 42 -38 16
-132 18 -198 4z m-121 -327 c2 -4 -19 -57 -49 -117 -29 -61 -55 -117 -59 -125
-3 -8 -10 -22 -15 -30 -4 -8 -22 -44 -38 -80 -30 -65 -47 -101 -141 -300 -27
-58 -52 -112 -56 -120 -3 -8 -10 -22 -15 -30 -5 -8 -25 -49 -44 -90 -40 -86
-109 -233 -173 -367 -78 -163 -137 -289 -253 -535 -21 -46 -41 -90 -45 -98 -3
-8 -10 -22 -15 -30 -5 -8 -29 -58 -54 -110 -24 -52 -62 -133 -84 -180 -23 -47
-60 -125 -83 -175 -23 -49 -68 -144 -100 -210 -64 -133 -123 -257 -176 -373
-20 -42 -57 -122 -84 -177 -26 -55 -50 -107 -54 -115 -3 -8 -10 -22 -15 -30
-21 -37 -71 -146 -71 -156 0 -22 -25 -35 -42 -21 -24 19 -84 147 -138 292 -12
33 -26 67 -30 76 -5 9 -12 34 -16 54 -4 21 -13 50 -20 64 -8 14 -14 38 -14 52
0 15 -7 43 -15 62 -8 20 -15 53 -15 73 0 20 -6 59 -14 87 -15 54 -30 261 -30
407 0 120 20 350 33 383 6 16 11 43 11 60 0 18 6 52 14 77 8 25 19 65 26 90 6
25 15 61 20 81 5 19 16 49 25 65 8 16 15 34 15 41 0 7 7 29 16 50 9 21 20 47
25 58 14 37 120 250 140 280 10 17 22 37 26 45 12 23 106 163 120 178 7 7 38
46 68 86 55 74 292 311 343 343 15 10 36 26 47 36 20 19 139 102 175 122 10 6
24 16 31 22 8 6 59 34 113 63 128 67 122 64 186 90 30 12 70 28 88 36 18 8 41
14 50 14 10 0 22 4 27 9 6 6 28 14 50 20 22 6 60 15 85 21 25 7 63 18 85 25
44 15 131 19 139 7z"></path>
<path d="M4672 5506 l-37 -34 -5 -1208 c-4 -960 -8 -1208 -18 -1212 -7 -2 -27
11 -45 30 -342 353 -513 531 -519 541 -4 7 -8 290 -8 630 l0 618 -26 34 c-32
42 -80 59 -141 50 -58 -9 -84 -36 -135 -145 -22 -47 -44 -92 -49 -100 -5 -8
-12 -22 -15 -30 -3 -8 -10 -22 -15 -30 -5 -8 -12 -22 -15 -30 -3 -8 -10 -22
-15 -30 -5 -8 -12 -22 -15 -30 -9 -25 -29 -70 -84 -185 -29 -60 -72 -153 -97
-205 -25 -52 -49 -102 -54 -110 -5 -8 -12 -22 -15 -30 -13 -32 -66 -146 -75
-160 -5 -8 -12 -22 -15 -30 -6 -17 -12 -31 -94 -205 -114 -241 -132 -280 -141
-295 -5 -8 -12 -22 -15 -30 -4 -8 -21 -46 -39 -85 -55 -117 -53 -168 8 -232
l31 -33 464 0 c406 0 467 2 491 16 40 24 61 68 61 130 0 38 4 56 14 60 9 4 97
-79 248 -231 128 -130 237 -243 241 -251 5 -8 7 -21 5 -28 -4 -17 -457 -483
-477 -491 -21 -8 -31 13 -31 73 0 47 -4 58 -35 90 l-35 37 -682 0 c-788 0
-704 13 -765 -115 -19 -41 -39 -82 -44 -90 -5 -8 -12 -22 -15 -30 -3 -8 -19
-42 -34 -75 -15 -33 -31 -67 -34 -75 -3 -8 -10 -22 -15 -30 -5 -8 -18 -35 -29
-60 -35 -78 -143 -304 -153 -320 -5 -8 -12 -22 -15 -30 -10 -24 -58 -127 -107
-230 -82 -172 -89 -198 -65 -243 33 -58 78 -95 193 -157 30 -17 79 -43 109
-59 64 -35 258 -120 301 -132 17 -4 57 -18 90 -29 61 -22 138 -43 230 -62 28
-5 75 -16 106 -24 30 -8 73 -14 95 -14 21 0 77 -7 124 -15 96 -17 381 -20 446
-5 22 5 87 14 145 19 57 6 118 15 134 20 17 5 53 14 80 20 97 19 150 32 166
41 9 5 34 12 55 16 22 4 48 13 59 20 11 8 27 14 36 14 10 0 30 6 46 14 15 7
45 21 66 30 41 17 92 40 147 65 35 15 296 168 315 183 6 5 60 45 120 90 120
89 376 338 470 457 32 40 86 117 121 170 35 53 67 101 71 107 16 21 65 112
104 194 22 47 45 92 50 100 10 16 11 20 36 85 8 22 21 53 29 68 8 16 14 35 14
44 0 8 6 29 14 46 8 18 19 52 26 77 6 25 18 70 26 100 9 30 20 80 25 110 6 30
15 69 20 86 5 18 14 72 19 120 5 49 14 132 20 184 13 103 8 337 -9 455 -6 39
-15 102 -20 140 -16 117 -31 199 -41 220 -5 11 -13 40 -19 65 -20 88 -37 145
-49 167 -6 12 -12 31 -12 42 0 10 -7 33 -15 50 -8 17 -22 45 -30 62 -8 17 -15
39 -15 49 0 9 -7 23 -15 30 -8 7 -15 19 -15 26 0 29 -163 320 -222 395 -15 20
-28 41 -28 45 0 5 -12 23 -28 39 -15 17 -40 50 -57 75 -52 77 -362 380 -475
463 -58 42 -109 81 -115 85 -5 4 -38 24 -71 45 -52 31 -71 37 -118 37 -50 0
-60 -4 -94 -34z m370 -490 c98 -87 144 -135 218 -226 25 -30 53 -64 63 -75 10
-11 55 -76 100 -145 102 -156 106 -162 113 -180 3 -8 9 -22 14 -30 10 -17 45
-88 54 -110 3 -8 10 -22 14 -30 23 -40 42 -83 42 -92 0 -5 6 -24 14 -41 12
-29 25 -64 66 -192 8 -22 17 -58 21 -80 5 -22 13 -65 19 -95 34 -163 39 -207
45 -335 4 -77 7 -144 7 -150 3 -63 -17 -334 -28 -378 -8 -32 -14 -72 -14 -88
0 -16 -7 -46 -15 -66 -8 -19 -15 -45 -15 -57 0 -11 -7 -43 -16 -71 -45 -137
-57 -173 -70 -202 -8 -17 -14 -35 -14 -40 0 -4 -14 -37 -32 -73 -17 -36 -38
-81 -47 -100 -17 -37 -138 -247 -153 -265 -5 -5 -45 -59 -90 -120 -86 -116
-262 -302 -349 -370 -28 -22 -63 -50 -77 -63 -33 -28 -213 -149 -267 -180 -60
-33 -285 -142 -294 -142 -5 0 -22 -7 -37 -15 -16 -8 -36 -15 -45 -15 -8 0 -19
-4 -25 -9 -5 -6 -27 -14 -49 -20 -22 -6 -60 -15 -85 -21 -25 -7 -65 -18 -90
-26 -25 -8 -59 -14 -76 -14 -17 0 -51 -7 -75 -16 -37 -14 -91 -17 -359 -17
-223 0 -328 3 -360 12 -25 7 -73 17 -108 21 -35 5 -68 13 -75 17 -6 4 -29 10
-52 14 -22 4 -53 12 -70 17 -16 6 -70 25 -120 43 -49 17 -108 39 -130 49 -22
10 -47 21 -55 24 -8 3 -22 10 -30 15 -8 5 -22 12 -30 15 -8 3 -23 10 -32 16
-10 5 -26 15 -35 20 -10 6 -28 14 -39 19 -43 19 -42 23 96 306 27 55 64 134
83 175 19 41 58 122 85 180 27 58 64 136 82 174 55 117 2 106 529 106 267 0
470 -4 485 -10 l25 -9 3 -178 c4 -208 10 -225 96 -256 45 -17 87 -18 493 -15
437 3 445 3 484 25 22 12 49 35 60 50 20 28 20 46 23 1703 1 921 2 1681 2
1688 0 27 32 8 122 -72z m-1282 -1323 c0 -373 -2 -418 -17 -435 -14 -16 -35
-18 -208 -18 -226 0 -223 -1 -176 94 16 34 32 68 35 76 3 8 10 22 15 30 5 8
28 56 51 105 23 50 66 140 95 200 29 61 56 117 59 125 3 8 10 22 15 30 21 37
71 146 71 156 0 18 41 65 51 59 5 -4 9 -180 9 -422z m868 -1586 l2 -167 -25
-10 c-34 -13 -305 -13 -325 0 -12 8 -1 24 61 87 42 43 118 120 167 172 50 51
97 91 104 89 10 -4 14 -45 16 -171z"></path>
</g>
</svg>